With: Colin Farrell, Kate Beckinsale and Jessica Biel

Welkom bij Rekall, het bedrijf dat dromen tot werkelijkheid kan brengen. Voor de fabrieksmedewerker Douglas Quaid (Colin Farrell) klinkt deze trip als de perfecte vakantie om aan zijn frustrerende leven te ontkomen, ook al heeft hij een prachtige vrouw (Kate Beckinsale). Echte herinneringen van het leven als een super spion is net wat hij nodig heeft. Maar als de procedure goed fout gaat, wordt Quaid een opgejaagd man. Hij wordt achtervolgd door de politie, geleid door Chancellor Cohaagen (Bryan Cranston) en besluit samen te werken met een vrouwelijke rebel vechter (Jessica Biel) om Cohaagen te stoppen. Het is niet meer duidelijk wat fantasie en werkelijkheid is en Quaid ontdekt zijn echte identiteit, liefde en lot.

A factory worker, Douglas Quaid, begins to suspect that he is a spy after visiting Rekall - a company that provides its clients with implanted fake memories of a life they would like to have led - goes wrong and he finds himself on the run. 
 
http://www.imdb.com/title/tt1386703

------------------------ Dutch Friends ------------------------
---------------------------------------------------------------
- Bezoek ook eens mijn vrienden op:  http://www.Film-Test.nl --
----- voor mijn Nederlandse Sync. ondertitels ---- en meer ----
------- http://www.Film-Test.nl ---- Over Films en meer -------
---------------------------------------------------------------

General:

Complete name                    : Total RecallTotal Recall.avi
Format                           : AVI
Format/Info                      : Audio Video Interleave
File size                        : 1.86 GiB
Duration                         : 1h 53mn
Overall bit rate                 : 2 347 Kbps

Video:

Format                           : MPEG-4 Visual
Format profile                   : Simple@L3
Format settings, BVOP            : No
Format settings, QPel            : No
Format settings, GMC             : No warppoints
Format settings, Matrix          : Default (H.263)
Codec ID                         : XVID
Codec ID/Hint                    : XviD
Duration                         : 1h 53mn
Bit rate                         : 1 888 Kbps
Width                            : 720 pixels
Height                           : 304 pixels
Display aspect ratio             : 2.35:1
Frame rate                       : 25.000 fps
Color space                      : YUV
Chroma subsampling               : 4:2:0
Bit depth                        : 8 bits
Scan type                        : Progressive
Compression mode                 : Lossy
Bits/(Pixel*Frame)               : 0.345
Stream size                      : 1.50 GiB (80%)
Writing library                  : XviD 1.1.2 (UTC 2006-11-01)

Audio:

Format                           : AC-3
Format/Info                      : Audio Coding 3
Mode extension                   : CM (complete main)
Codec ID                         : 2000
Duration                         : 1h 53mn
Bit rate mode                    : Constant
Bit rate                         : 448 Kbps
Channel(s)                       : 6 channels
Channel positions                : Front: L C R, Side: L R, LFE
Sampling rate                    : 48.0 KHz
Bit depth                        : 16 bits
Compression mode                 : Lossy
Stream size                      : 363 MiB (19%)
Alignment                        : Aligned on interleaves
Interleave, duration             : 32 ms (0.80 video frame)
Interleave, preload duration     : 64 ms